<?xml version="1.0" standalone="no"?>
<!DOCTYPE svg PUBLIC "-//W3C//DTD SVG 20010904//EN"
 "http://www.w3.org/TR/2001/REC-SVG-20010904/DTD/svg10.dtd">
<svg version="1.0" xmlns="http://www.w3.org/2000/svg"
 width="404.000000pt" height="404.000000pt" viewBox="0 0 404.000000 404.000000"
 preserveAspectRatio="xMidYMid meet">
<metadata>
Created by potrace 1.14, written by Peter Selinger 2001-2017
</metadata>
<g transform="translate(0.000000,404.000000) scale(0.100000,-0.100000)"
fill="#000000" stroke="none">
<path d="M0 2020 l0 -2020 2020 0 2020 0 0 2020 0 2020 -2020 0 -2020 0 0
-2020z m3866 1797 l24 -28 0 -1754 c0 -1086 -4 -1763 -10 -1779 -5 -14 -18
-30 -29 -36 -15 -7 -533 -11 -1803 -10 -1780 0 -1782 0 -1803 20 -19 19 -20
36 -25 278 -8 422 -12 3213 -4 3261 5 34 14 47 38 62 30 19 78 19 1809 17
l1779 -3 24 -28z"/>
<path d="M680 3508 c-50 -26 -90 -89 -90 -143 1 -46 34 -109 71 -136 51 -36
142 -34 192 4 49 37 67 75 67 139 0 66 -25 110 -79 138 -52 26 -106 25 -161
-2z"/>
<path d="M3275 3516 c-77 -33 -112 -128 -80 -211 51 -135 232 -141 295 -10 66
136 -76 282 -215 221z"/>
<path d="M1226 3450 c-47 -9 -76 -41 -76 -82 0 -40 25 -85 52 -94 13 -4 277
-6 588 -5 311 0 687 1 837 1 l272 0 28 24 c39 34 39 95 0 134 l-27 27 -818 1
c-449 1 -835 -2 -856 -6z"/>
<path d="M1375 2823 c-72 -10 -156 -38 -229 -76 -225 -117 -366 -363 -366
-642 0 -170 48 -313 149 -447 243 -321 729 -358 1033 -79 32 29 58 59 58 66 0
11 -166 171 -197 189 -8 4 -30 -9 -56 -33 -24 -22 -75 -55 -113 -73 -64 -31
-76 -33 -174 -33 -99 0 -109 2 -172 33 -160 79 -246 254 -218 448 20 149 101
267 220 323 49 23 67 26 170 26 103 0 121 -3 170 -26 30 -14 82 -50 114 -80
l59 -54 25 34 c15 18 59 58 99 88 40 30 73 61 73 68 0 20 -114 131 -174 170
-129 82 -311 120 -471 98z"/>
<path d="M2060 2800 c-11 -11 -20 -24 -20 -29 0 -11 505 -1277 526 -1317 9
-18 27 -37 40 -43 31 -14 112 -14 151 -1 34 12 41 24 83 138 74 202 92 248
110 277 10 16 24 50 30 75 7 24 24 69 40 100 15 30 37 86 50 124 13 39 31 84
41 100 9 17 23 51 29 76 7 25 21 63 33 85 11 22 33 78 48 124 16 46 36 95 45
109 9 13 24 49 35 80 38 112 27 122 -130 122 -87 0 -122 -4 -130 -13 -9 -12
-138 -329 -298 -737 -25 -63 -49 -119 -53 -123 -4 -5 -83 180 -174 410 -92
230 -174 428 -182 441 -14 21 -21 22 -134 22 -107 0 -122 -2 -140 -20z"/>
<path d="M3313 1150 c-79 -19 -118 -73 -111 -152 6 -58 31 -96 79 -121 96 -51
228 36 216 142 -10 93 -95 153 -184 131z"/>
<path d="M1422 1070 l-784 -5 -19 -24 c-22 -26 -25 -87 -6 -112 30 -39 22 -39
1117 -39 1141 0 1102 -2 1130 49 29 55 -9 130 -67 132 -90 4 -690 3 -1371 -1z"/>
<path d="M3271 753 c-47 -23 -71 -67 -71 -128 0 -89 58 -148 146 -148 78 0
142 57 151 135 6 50 -10 89 -51 127 -35 33 -125 40 -175 14z"/>
<path d="M670 733 c-68 -13 -93 -95 -46 -150 l24 -28 1069 -3 c789 -2 1075 1
1096 9 60 25 76 96 33 146 l-24 28 -1064 1 c-584 1 -1074 -1 -1088 -3z"/>
</g>
</svg>
